PathFileType	4	(X/Y/Z)	C:\Users\Basilio\Documents\Thesis Gigler\squatting_fais\c3dfiles\038\SLS_back_pre3\markers_experimental.trc
DataRate	CameraRate	NumFrames	NumMarkers	Units	OrigDataRate	OrigDataStartFrame	OrigNumFrames
200.000000	200.000000	4	63	mm	200.000000	939	1878
Frame#	Time	FHD			LBHD			RBHD			C7			T10			CLAV			LSHO			LUUPA			LMUPA			LDUPA			LLEP			LMEP			LRAD			LUL			LRFIN			RSHO			RUPA1			RMUPA			RDUPA			RLEP			RMEP			RRAD			RUL			RUFIN			LASI			RASI			USACR			LSACR			RSACR			LTHI1			LTHI2			LTHI3			LTHI4			LLFC			LMFC			LTIB1			LTIB2			LTIB3			LTIB4			LLMAL			LMMAL			LHEE			LMT1			LMT2			LMT5			RTHI			RTHI2			RTHI3			RTHI4			RLFC			RMFC			RTIB1			RTIB2			RTIB3			RTIB4			RLMAL			RMMAL			RHEE			RMT1			RMT2			RMT5			*61			*62			
		X1	Y1	Z1	X2	Y2	Z2	X3	Y3	Z3	X4	Y4	Z4	X5	Y5	Z5	X6	Y6	Z6	X7	Y7	Z7	X8	Y8	Z8	X9	Y9	Z9	X10	Y10	Z10	X11	Y11	Z11	X12	Y12	Z12	X13	Y13	Z13	X14	Y14	Z14	X15	Y15	Z15	X16	Y16	Z16	X17	Y17	Z17	X18	Y18	Z18	X19	Y19	Z19	X20	Y20	Z20	X21	Y21	Z21	X22	Y22	Z22	X23	Y23	Z23	X24	Y24	Z24	X25	Y25	Z25	X26	Y26	Z26	X27	Y27	Z27	X28	Y28	Z28	X29	Y29	Z29	X30	Y30	Z30	X31	Y31	Z31	X32	Y32	Z32	X33	Y33	Z33	X34	Y34	Z34	X35	Y35	Z35	X36	Y36	Z36	X37	Y37	Z37	X38	Y38	Z38	X39	Y39	Z39	X40	Y40	Z40	X41	Y41	Z41	X42	Y42	Z42	X43	Y43	Z43	X44	Y44	Z44	X45	Y45	Z45	X46	Y46	Z46	X47	Y47	Z47	X48	Y48	Z48	X49	Y49	Z49	X50	Y50	Z50	X51	Y51	Z51	X52	Y52	Z52	X53	Y53	Z53	X54	Y54	Z54	X55	Y55	Z55	X56	Y56	Z56	X57	Y57	Z57	X58	Y58	Z58	X59	Y59	Z59	X60	Y60	Z60	X61	Y61	Z61	X62	Y62	Z62	X63	Y63	Z63	

940	4.695	-151.002197265625	1571.452026367188	-1053.875244140625	-305.5007324218751	1523.493896484375	-1117.296020507813	-299.9055786132813	1508.77587890625	-972.7619628906252	-357.9803161621094	1355.27880859375	-1048.473754882813	-404.5080871582032	1080.460815429688	-1028.366577148438	-216.4154663085938	1318.358276367188	-1053.5439453125	-271.3636169433594	1367.48974609375	-1193.731811523438	-119.3916702270508	1304.020751953125	-1334.896484375	-88.65620422363283	1335.435302734375	-1309.432250976563	-51.28073120117189	1309.15673828125	-1347.861328125	11.48943901062012	1310.058349609375	-1353.41748046875	20.92481994628907	1235.07275390625	-1331.715942382813	293.8614807128907	1303.592041015625	-1236.251220703125	305.7500915527344	1313.237426757813	-1307.1181640625	366.3222351074219	1336.426391601563	-1218.033203125	-266.8479919433594	1365.372802734375	-917.0316162109377	-113.3076324462891	1342.71435546875	-797.5678710937502	-78.46632385253908	1352.308959960938	-829.9397583007815	-45.71532058715821	1339.18212890625	-780.640075683594	28.11999130249024	1337.034790039063	-770.9929199218752	35.0654525756836	1258.655151367188	-788.176696777344	303.4770507812501	1341.18896484375	-858.518249511719	315.2035827636719	1352.326049804688	-789.5834960937502	380.5131530761719	1380.465454101563	-863.905944824219	-252.1388702392579	869.9732666015627	-1111.350219726563	-288.8057556152344	890.4044189453127	-866.1292114257815	-434.906463623047	938.0596923828127	-1016.259399414063	-445.3815307617189	907.303894042969	-1044.993530273438	-453.3706970214845	910.3886718750002	-988.0924072265627	-161.1438140869141	599.4557495117189	-1163.2587890625	-94.34202575683595	546.2719726562501	-1152.636108398438	-61.12239456176759	571.4874877929689	-1124.626708984375	-97.11849212646487	487.5236816406251	-1135.992797851563	-80.02662658691408	437.634490966797	-1119.517211914063	-81.03076171875001	443.8502807617189	-1004.646240234375	-138.1653594970703	276.4003906250001	-1022.317626953125	-196.7246551513672	254.4389038085938	-1087.790283203125	-169.7932586669922	236.990951538086	-1052.454956054688	-226.7626647949219	185.0535125732422	-1016.3828125	-371.3250427246094	117.4776916503907	-1038.06787109375	-331.4254760742188	129.6615600585938	-962.0220947265627	-432.8292541503907	101.0426712036133	-980.2310791015627	-232.9996032714844	44.85135650634766	-974.1260986328127	-225.0993804931641	45.03871154785157	-1024.315307617188	-270.0460205078126	36.57646942138673	-1070.912109375	-342.9292907714844	623.0352172851564	-790.3184204101565	-307.8356323242188	567.1038818359376	-775.4043579101565	-274.6076354980469	567.1570434570314	-776.483581542969	-336.8163146972657	486.1675109863282	-782.5213012695315	-335.2303466796876	384.4881896972657	-790.6726074218752	-320.8207092285157	369.2843017578126	-904.2567138671877	-464.130828857422	277.0563049316407	-831.089050292969	-568.0083007812501	329.8142700195313	-825.4718017578127	-549.7155761718751	285.4004211425782	-824.9009399414065	-587.6980590820314	256.2918395996094	-861.087829589844	-719.8210449218751	285.2855834960938	-865.1846923828127	-692.3922119140626	246.3243713378907	-934.1646728515627	-732.9638671875001	333.7818603515626	-944.687438964844	-778.7078857421877	121.3065185546875	-921.5007324218752	-793.504333496094	127.5056076049805	-878.7525634765627	-821.0637817382815	178.0805206298828	-849.700866699219	nan	nan	nan	nan	nan	nan	
941	4.7	-151.0262451171875	1571.292724609375	-1054.140869140625	-305.2086181640626	1522.888916015625	-1117.310913085938	-299.6594848632813	1508.116088867188	-972.885437011719	-357.5720825195313	1354.60986328125	-1048.616577148438	-404.5400390625001	1079.921142578125	-1028.403076171875	-216.3055877685547	1317.599975585938	-1053.54248046875	-271.0940246582032	1366.908447265625	-1193.82568359375	-119.0221099853516	1303.289428710938	-1334.942138671875	-88.60545349121095	1335.087524414063	-1309.898559570313	-50.87639617919923	1308.59521484375	-1347.854125976563	11.96012687683106	1309.610717773438	-1353.30712890625	21.36779212951661	1234.380493164063	-1331.633056640625	294.3977966308594	1303.171142578125	-1235.826782226563	306.1209716796876	1312.710327148438	-1306.927001953125	366.6458740234376	1335.87744140625	-1217.848510742188	-266.6618347167969	1364.795288085938	-917.119079589844	-112.9988403320313	1342.027099609375	-797.7105712890627	-78.16842651367189	1351.824951171875	-830.0872192382815	-45.42986679077149	1338.595703125	-780.7159423828127	28.28429794311524	1336.529907226563	-771.0941162109377	35.59147262573243	1258.405151367188	-788.1585693359377	303.7069091796876	1340.586059570313	-858.5666503906252	315.4801025390626	1351.496459960938	-790.2339477539065	380.9353027343751	1379.999633789063	-864.0334472656252	-252.5739288330079	869.3129882812502	-1111.226318359375	-288.7921447753907	889.9406738281252	-866.2376708984377	-434.903289794922	937.5443115234377	-1016.348693847656	-445.3309020996095	906.6956176757815	-1045.0546875	-453.4356079101564	910.032409667969	-988.074157714844	-160.9682006835938	599.1091308593751	-1163.344970703125	-93.66428375244142	545.5979614257814	-1152.838623046875	-60.92221450805665	571.0886840820314	-1124.699340820313	-96.96900177001956	487.3797607421876	-1136.202392578125	-79.76047515869142	437.4568481445314	-1119.699951171875	-80.8194046020508	443.521942138672	-1004.919738769531	-138.0057983398438	276.0767517089844	-1022.645812988281	-196.478744506836	254.1191406250001	-1088.187622070313	-169.7865295410157	236.9459075927735	-1052.687133789063	-226.7407531738282	184.9166107177735	-1016.637023925781	-371.6183471679688	117.0547943115235	-1038.337646484375	-331.3944091796876	129.8099212646485	-962.2220458984377	-432.8367919921876	101.038314819336	-980.2891845703127	-233.0391845703126	44.96044540405274	-974.1657714843752	-225.1229553222657	44.99680709838868	-1024.378662109375	-270.0264587402344	36.45360565185548	-1070.999145507813	-342.9637451171876	622.4259643554689	-790.3218994140627	-307.6216735839844	566.8055419921876	-774.910583496094	-274.4056091308594	567.1223754882814	-775.991638183594	-336.7285461425782	485.7213134765626	-782.454772949219	-335.2744140625001	383.5850830078126	-790.7448730468752	-320.9158020019532	368.7713623046876	-904.2360839843752	-464.1428527832032	276.6957092285157	-830.8269042968752	-567.8683471679689	329.3869628906251	-825.2927246093752	-549.7103881835939	285.0756530761719	-824.8359375000002	-587.7221069335939	255.9382629394532	-861.029724121094	-719.8073120117189	285.0284423828126	-865.0466918945315	-692.4423828125001	246.1688995361329	-934.0114746093752	-732.9715576171876	333.5955505371094	-944.5579223632815	-778.8717041015627	121.3294143676758	-921.4453125000002	-793.635437011719	127.4373779296875	-878.6138305664065	-821.1749267578127	177.9965057373047	-849.5083618164065	nan	nan	nan	nan	nan	nan	
942	4.705	-150.7468719482422	1570.622192382813	-1054.117431640625	-305.0896606445313	1521.790649414063	-1117.498291015625	-299.5455017089844	1507.355834960938	-972.9370727539065	-357.3354797363282	1354.059936523438	-1048.717407226563	-404.4812011718751	1079.435180664063	-1028.538940429688	-216.1156463623047	1316.936767578125	-1053.560791015625	-270.7476196289063	1366.3056640625	-1193.9521484375	-118.6494216918946	1302.665283203125	-1334.90185546875	-88.14905548095705	1334.35400390625	-1309.6005859375	-50.56004333496095	1308.095825195313	-1347.8359375	12.70506095886231	1308.801635742188	-1353.463745117188	21.57657051086426	1233.797729492188	-1331.5458984375	294.5731811523438	1302.698852539063	-1235.81689453125	306.5487670898438	1312.112060546875	-1306.79736328125	366.9368896484376	1335.374755859375	-1217.615478515625	-266.4317321777344	1364.329467773438	-917.2729492187502	-112.5009841918946	1341.680541992188	-797.9687500000002	-77.73337554931642	1351.186401367188	-830.1394653320315	-45.0449447631836	1338.207885742188	-780.8917236328127	28.65734672546387	1335.969116210938	-771.182067871094	35.87211227416993	1257.880493164063	-788.129821777344	303.7191467285157	1339.197998046875	-858.7369384765627	315.7758178710938	1350.854736328125	-790.337341308594	381.2272033691407	1378.97412109375	-863.732849121094	-252.796127319336	868.5351562500002	-1111.374145507813	-288.9080505371094	889.1728515625002	-866.1506347656252	-434.7644653320314	936.9793090820315	-1016.381774902344	-445.2487792968751	906.1458740234377	-1045.132568359375	-453.4916381835939	909.5301513671877	-988.1177978515627	-160.8544006347657	598.8139648437501	-1163.453735351563	-94.01863861083986	545.6505126953126	-1153.157348632813	-60.83902740478517	570.9058837890626	-1124.911865234375	-96.70668792724612	487.1303100585939	-1136.337524414063	-79.68144989013673	437.220916748047	-1120.008056640625	-80.60308837890626	443.2739257812501	-1005.197082519531	-137.901107788086	275.7464294433594	-1022.977233886719	-196.4395141601563	253.9851379394532	-1088.50634765625	-169.7452697753907	236.8592834472657	-1053.22216796875	-226.7407226562501	184.7653961181641	-1016.886169433594	-371.6760253906251	117.0150909423828	-1038.516723632813	-331.7675170898438	129.4247741699219	-962.8089599609377	-432.8078002929689	101.0643692016602	-980.3687744140627	-233.0217590332032	44.99684524536134	-974.2471313476565	-225.1027374267579	44.9049301147461	-1024.474853515625	-270.0812072753907	36.37794494628907	-1071.091918945313	-343.0212402343751	621.6892089843751	-790.317077636719	-307.7340698242188	566.2875976562501	-774.7904052734377	-274.4466552734376	566.5269165039064	-776.0093994140627	-336.7159118652344	485.1739807128907	-782.449890136719	-335.2933654785157	383.1348266601563	-790.5921630859377	-320.8894348144532	368.2258300781251	-904.1562500000002	-464.0847473144532	276.2992553710938	-830.7222290039065	-567.7251586914064	329.0017089843751	-825.1045532226565	-549.7937622070314	284.7880249023438	-824.649597167969	-587.7352294921876	255.5801391601563	-861.048522949219	-719.7504272460939	284.8583679199219	-864.924743652344	-692.4799194335939	245.9189758300782	-933.8770751953127	-732.9475708007814	333.3646240234376	-944.4407348632815	-779.0395507812502	121.1871185302735	-921.3593750000002	-793.7203369140627	127.4490737915039	-878.4263916015627	-821.0837402343752	178.2799987792969	-849.390563964844	nan	nan	nan	nan	nan	nan	
943	4.71	-150.2541809082032	1569.795532226563	-1054.152465820313	-304.7402648925782	1521.201293945313	-1117.605712890625	-299.2991638183594	1506.801025390625	-972.9243774414065	-357.1369934082032	1353.576904296875	-1048.869384765625	-404.4253845214845	1078.901733398438	-1028.551025390625	-215.7792053222657	1316.351318359375	-1053.704467773438	-270.5694885253907	1365.77392578125	-1193.94140625	-118.419906616211	1302.158203125	-1334.921264648438	-87.76677703857423	1333.757690429688	-1309.475952148438	-50.19877243041994	1307.61572265625	-1347.837280273438	13.02003002166748	1308.214599609375	-1353.387939453125	21.82334518432618	1233.260986328125	-1331.48046875	294.6454467773438	1302.022827148438	-1235.865112304688	306.8772888183594	1311.587524414063	-1306.557861328125	367.2684020996094	1334.698486328125	-1217.37109375	-265.9628295898438	1363.695678710938	-917.5081176757815	-112.2976760864258	1341.103759765625	-798.1289672851565	-77.34800720214845	1350.384155273438	-830.3487548828127	-44.67206954956055	1337.493896484375	-781.080505371094	29.00010299682618	1335.251708984375	-771.3386840820315	36.06408691406251	1257.310668945313	-788.1888427734377	304.2191467285157	1339.4404296875	-858.8748779296877	315.8861999511719	1350.391723632813	-790.460876464844	381.5537719726563	1378.5537109375	-864.0616455078127	-252.9618377685547	868.0681762695315	-1111.380737304688	-289.0005493164063	888.5499267578127	-865.9234008789065	-434.8574523925782	936.1773681640627	-1016.328308105469	-445.3442993164064	905.4952392578127	-1045.10107421875	-453.5606994628907	908.800231933594	-988.2479248046877	-160.7742004394532	598.5172119140626	-1163.634887695313	-93.90715789794923	545.4231567382814	-1153.37890625	-60.7460403442383	570.6015625000001	-1124.973999023438	-96.4576110839844	486.8744201660157	-1136.533203125	-79.40523529052736	437.0523071289064	-1120.250366210938	-80.32854461669923	442.9720764160157	-1005.483642578125	-137.7601318359375	275.4889526367188	-1023.4033203125	-196.4176788330079	253.7880554199219	-1088.918701171875	-169.7004699707032	236.6934356689454	-1053.563842773438	-226.7953643798829	184.6371307373047	-1017.329040527344	-371.7633666992188	117.0154342651367	-1038.64404296875	-331.6705017089844	129.4374542236328	-962.9709472656252	-432.7716369628907	101.0388641357422	-980.470153808594	-233.0207519531251	44.99248886108399	-974.368103027344	-225.1286621093751	44.84186172485352	-1024.5810546875	-270.1416625976563	36.29832458496094	-1071.214599609375	-343.0835876464844	621.1059570312501	-790.3313598632815	-307.9777526855469	565.6312255859376	-775.0881347656252	-274.6477355957032	565.5093994140626	-776.4673461914065	-336.7258911132813	484.5650329589845	-782.3569946289065	-334.9240722656251	382.7433166503907	-790.456726074219	-320.7916564941407	367.7483825683594	-904.0647583007815	-464.0898742675782	276.1416320800782	-830.724304199219	-567.5335693359376	328.4544372558594	-824.9136962890627	-549.8027343750001	284.4617004394532	-824.5225219726565	-587.6947631835939	255.2767944335938	-860.9932861328127	-719.7767333984376	284.7069091796876	-864.8004150390627	-692.5325927734376	245.723617553711	-933.8024902343752	-732.8964843750001	333.1567382812501	-944.2444458007815	-779.1524047851565	120.9826431274414	-921.2484130859377	-793.8059692382815	127.2941818237305	-878.2755126953127	-821.136169433594	178.1791229248047	-849.2824707031252	nan	nan	nan	nan	nan	nan	
